<svg width="1557" height="784" viewBox="0 0 1557 784" fill="none" xmlns="http://www.w3.org/2000/svg">
<path d="M24.08 230V16.08L42.28 12.72V89.44C48.2533 87.2 54.32 85.52 60.48 84.4C66.64 83.0933 72.8 82.44 78.96 82.44C90.16 82.44 99.4933 84.0267 106.96 87.2C114.427 90.3733 120.4 94.9467 124.88 100.92C129.36 106.707 132.44 113.707 134.12 121.92C135.987 130.133 136.92 139.187 136.92 149.08V230H118.72V154.96C118.72 144.693 117.973 136.013 116.48 128.92C115.173 121.827 112.84 116.04 109.48 111.56C106.307 107.08 102.013 103.907 96.6 102.04C91.1867 99.9867 84.3733 98.96 76.16 98.96C72.9867 98.96 69.5333 99.24 65.8 99.8C62.2533 100.36 58.8933 101.013 55.72 101.76C52.5467 102.32 49.6533 102.973 47.04 103.72C44.6133 104.467 43.0267 105.027 42.28 105.4V230H24.08ZM306.974 157.76C306.974 169.147 305.294 179.507 301.934 188.84C298.761 198.173 294.187 206.107 288.214 212.64C282.427 219.173 275.521 224.307 267.494 228.04C259.467 231.587 250.601 233.36 240.894 233.36C231.187 233.36 222.321 231.587 214.294 228.04C206.267 224.307 199.267 219.173 193.294 212.64C187.507 206.107 182.934 198.173 179.574 188.84C176.401 179.507 174.814 169.147 174.814 157.76C174.814 146.373 176.401 136.013 179.574 126.68C182.934 117.347 187.507 109.413 193.294 102.88C199.267 96.16 206.267 91.0267 214.294 87.48C222.321 83.7467 231.187 81.88 240.894 81.88C250.601 81.88 259.467 83.7467 267.494 87.48C275.521 91.0267 282.427 96.16 288.214 102.88C294.187 109.413 298.761 117.347 301.934 126.68C305.294 136.013 306.974 146.373 306.974 157.76ZM287.654 157.76C287.654 139.653 283.454 125.28 275.054 114.64C266.654 103.813 255.267 98.4 240.894 98.4C226.521 98.4 215.134 103.813 206.734 114.64C198.334 125.28 194.134 139.653 194.134 157.76C194.134 175.867 198.334 190.24 206.734 200.88C215.134 211.52 226.521 216.84 240.894 216.84C255.267 216.84 266.654 211.52 275.054 200.88C283.454 190.24 287.654 175.867 287.654 157.76ZM395.743 82.44C401.716 82.44 407.316 82.9067 412.543 83.84C417.956 84.7733 421.689 85.7067 423.743 86.64L420.103 102.32C418.609 101.573 415.529 100.827 410.863 100.08C406.383 99.1467 400.409 98.68 392.943 98.68C385.103 98.68 378.756 99.24 373.903 100.36C369.236 101.48 366.156 102.413 364.663 103.16V230H346.463V91.96C351.129 89.9067 357.569 87.8533 365.783 85.8C373.996 83.56 383.983 82.44 395.743 82.44ZM442.509 157.48C442.509 144.787 444.283 133.773 447.829 124.44C451.563 114.92 456.323 106.987 462.109 100.64C468.083 94.2933 474.803 89.6267 482.269 86.64C489.923 83.4667 497.763 81.88 505.789 81.88C523.523 81.88 537.616 87.6667 548.069 99.24C558.709 110.813 564.029 128.64 564.029 152.72C564.029 154.213 563.936 155.707 563.749 157.2C563.749 158.693 563.656 160.093 563.469 161.4H461.829C462.389 179.133 466.776 192.76 474.989 202.28C483.203 211.8 496.269 216.56 514.189 216.56C524.083 216.56 531.923 215.627 537.709 213.76C543.496 211.893 547.696 210.307 550.309 209L553.669 224.68C551.056 226.173 546.109 227.947 538.829 230C531.736 232.053 523.336 233.08 513.629 233.08C500.936 233.08 490.109 231.213 481.149 227.48C472.189 223.747 464.816 218.52 459.029 211.8C453.243 205.08 449.043 197.147 446.429 188C443.816 178.667 442.509 168.493 442.509 157.48ZM545.269 146C544.896 130.88 541.349 119.12 534.629 110.72C527.909 102.32 518.389 98.12 506.069 98.12C499.536 98.12 493.656 99.4267 488.429 102.04C483.389 104.653 478.909 108.2 474.989 112.68C471.256 116.973 468.269 122.013 466.029 127.8C463.976 133.587 462.763 139.653 462.389 146H545.269ZM664.508 233.08C653.308 233.08 643.414 231.307 634.828 227.76C626.241 224.213 619.054 219.173 613.268 212.64C607.668 205.92 603.374 197.987 600.388 188.84C597.401 179.507 595.908 169.24 595.908 158.04C595.908 146.653 597.401 136.293 600.388 126.96C603.561 117.627 608.041 109.6 613.828 102.88C619.614 96.16 626.614 91.0267 634.828 87.48C643.041 83.7467 652.281 81.88 662.548 81.88C670.388 81.88 677.668 82.5333 684.388 83.84C691.294 85.1467 696.614 86.8267 700.348 88.88L695.588 104.56C691.854 102.693 687.654 101.2 682.988 100.08C678.321 98.96 672.068 98.4 664.228 98.4C648.174 98.4 635.948 103.627 627.548 114.08C619.334 124.347 615.228 139 615.228 158.04C615.228 166.627 616.161 174.56 618.028 181.84C619.894 188.933 622.881 195.093 626.988 200.32C631.281 205.36 636.694 209.373 643.228 212.36C649.948 215.16 658.068 216.56 667.588 216.56C675.428 216.56 681.961 215.72 687.188 214.04C692.601 212.173 696.521 210.587 698.948 209.28L702.868 224.96C699.508 226.827 694.188 228.6 686.908 230.28C679.814 232.147 672.348 233.08 664.508 233.08ZM779.017 216.84C786.11 216.84 792.27 216.653 797.497 216.28C802.91 215.72 807.484 215.067 811.217 214.32V163.36C809.164 162.427 805.897 161.493 801.417 160.56C796.937 159.44 790.777 158.88 782.937 158.88C778.457 158.88 773.79 159.253 768.937 160C764.084 160.56 759.604 161.96 755.497 164.2C751.39 166.253 748.03 169.147 745.417 172.88C742.804 176.613 741.497 181.56 741.497 187.72C741.497 193.133 742.337 197.707 744.017 201.44C745.884 205.173 748.404 208.16 751.577 210.4C754.937 212.64 758.857 214.32 763.337 215.44C768.004 216.373 773.23 216.84 779.017 216.84ZM777.337 81.88C786.857 81.88 794.884 83.28 801.417 86.08C808.137 88.6933 813.55 92.4267 817.657 97.28C821.764 101.947 824.75 107.547 826.617 114.08C828.484 120.613 829.417 127.707 829.417 135.36V226.64C827.55 227.2 824.844 227.853 821.297 228.6C817.75 229.16 813.644 229.813 808.977 230.56C804.31 231.307 799.084 231.867 793.297 232.24C787.697 232.8 781.91 233.08 775.937 233.08C768.284 233.08 761.19 232.24 754.657 230.56C748.31 228.88 742.71 226.267 737.857 222.72C733.19 218.987 729.457 214.32 726.657 208.72C724.044 202.933 722.737 195.933 722.737 187.72C722.737 179.88 724.23 173.16 727.217 167.56C730.204 161.96 734.404 157.387 739.817 153.84C745.23 150.107 751.67 147.4 759.137 145.72C766.604 144.04 774.724 143.2 783.497 143.2C786.11 143.2 788.817 143.387 791.617 143.76C794.604 143.947 797.404 144.32 800.017 144.88C802.817 145.253 805.15 145.72 807.017 146.28C809.07 146.653 810.47 147.027 811.217 147.4V138.44C811.217 133.4 810.844 128.547 810.097 123.88C809.35 119.027 807.67 114.733 805.057 111C802.63 107.08 799.084 104 794.417 101.76C789.937 99.3333 783.964 98.12 776.497 98.12C765.857 98.12 757.924 98.8667 752.697 100.36C747.47 101.853 743.644 103.067 741.217 104L738.697 88.04C741.87 86.5467 746.724 85.1467 753.257 83.84C759.977 82.5333 768.004 81.88 777.337 81.88ZM875.838 230V16.08L894.038 12.72V89.44C900.011 87.2 906.078 85.52 912.238 84.4C918.398 83.0933 924.558 82.44 930.718 82.44C941.918 82.44 951.251 84.0267 958.718 87.2C966.184 90.3733 972.158 94.9467 976.638 100.92C981.118 106.707 984.198 113.707 985.878 121.92C987.744 130.133 988.678 139.187 988.678 149.08V230H970.478V154.96C970.478 144.693 969.731 136.013 968.238 128.92C966.931 121.827 964.598 116.04 961.238 111.56C958.064 107.08 953.771 103.907 948.358 102.04C942.944 99.9867 936.131 98.96 927.918 98.96C924.744 98.96 921.291 99.24 917.558 99.8C914.011 100.36 910.651 101.013 907.478 101.76C904.304 102.32 901.411 102.973 898.798 103.72C896.371 104.467 894.784 105.027 894.038 105.4V230H875.838ZM1158.73 157.76C1158.73 169.147 1157.05 179.507 1153.69 188.84C1150.52 198.173 1145.95 206.107 1139.97 212.64C1134.19 219.173 1127.28 224.307 1119.25 228.04C1111.23 231.587 1102.36 233.36 1092.65 233.36C1082.95 233.36 1074.08 231.587 1066.05 228.04C1058.03 224.307 1051.03 219.173 1045.05 212.64C1039.27 206.107 1034.69 198.173 1031.33 188.84C1028.16 179.507 1026.57 169.147 1026.57 157.76C1026.57 146.373 1028.16 136.013 1031.33 126.68C1034.69 117.347 1039.27 109.413 1045.05 102.88C1051.03 96.16 1058.03 91.0267 1066.05 87.48C1074.08 83.7467 1082.95 81.88 1092.65 81.88C1102.36 81.88 1111.23 83.7467 1119.25 87.48C1127.28 91.0267 1134.19 96.16 1139.97 102.88C1145.95 109.413 1150.52 117.347 1153.69 126.68C1157.05 136.013 1158.73 146.373 1158.73 157.76ZM1139.41 157.76C1139.41 139.653 1135.21 125.28 1126.81 114.64C1118.41 103.813 1107.03 98.4 1092.65 98.4C1078.28 98.4 1066.89 103.813 1058.49 114.64C1050.09 125.28 1045.89 139.653 1045.89 157.76C1045.89 175.867 1050.09 190.24 1058.49 200.88C1066.89 211.52 1078.28 216.84 1092.65 216.84C1107.03 216.84 1118.41 211.52 1126.81 200.88C1135.21 190.24 1139.41 175.867 1139.41 157.76ZM1247.5 82.44C1253.47 82.44 1259.07 82.9067 1264.3 83.84C1269.71 84.7733 1273.45 85.7067 1275.5 86.64L1271.86 102.32C1270.37 101.573 1267.29 100.827 1262.62 100.08C1258.14 99.1467 1252.17 98.68 1244.7 98.68C1236.86 98.68 1230.51 99.24 1225.66 100.36C1220.99 101.48 1217.91 102.413 1216.42 103.16V230H1198.22V91.96C1202.89 89.9067 1209.33 87.8533 1217.54 85.8C1225.75 83.56 1235.74 82.44 1247.5 82.44ZM1294.27 157.48C1294.27 144.787 1296.04 133.773 1299.59 124.44C1303.32 114.92 1308.08 106.987 1313.87 100.64C1319.84 94.2933 1326.56 89.6267 1334.03 86.64C1341.68 83.4667 1349.52 81.88 1357.55 81.88C1375.28 81.88 1389.37 87.6667 1399.83 99.24C1410.47 110.813 1415.79 128.64 1415.79 152.72C1415.79 154.213 1415.69 155.707 1415.51 157.2C1415.51 158.693 1415.41 160.093 1415.23 161.4H1313.59C1314.15 179.133 1318.53 192.76 1326.75 202.28C1334.96 211.8 1348.03 216.56 1365.95 216.56C1375.84 216.56 1383.68 215.627 1389.47 213.76C1395.25 211.893 1399.45 210.307 1402.07 209L1405.43 224.68C1402.81 226.173 1397.87 227.947 1390.59 230C1383.49 232.053 1375.09 233.08 1365.39 233.08C1352.69 233.08 1341.87 231.213 1332.91 227.48C1323.95 223.747 1316.57 218.52 1310.79 211.8C1305 205.08 1300.8 197.147 1298.19 188C1295.57 178.667 1294.27 168.493 1294.27 157.48ZM1397.03 146C1396.65 130.88 1393.11 119.12 1386.39 110.72C1379.67 102.32 1370.15 98.12 1357.83 98.12C1351.29 98.12 1345.41 99.4267 1340.19 102.04C1335.15 104.653 1330.67 108.2 1326.75 112.68C1323.01 116.973 1320.03 122.013 1317.79 127.8C1315.73 133.587 1314.52 139.653 1314.15 146H1397.03ZM84 485.08C72.8 485.08 62.9067 483.307 54.32 479.76C45.7333 476.213 38.5467 471.173 32.76 464.64C27.16 457.92 22.8667 449.987 19.88 440.84C16.8933 431.507 15.4 421.24 15.4 410.04C15.4 398.653 16.8933 388.293 19.88 378.96C23.0533 369.627 27.5333 361.6 33.32 354.88C39.1067 348.16 46.1067 343.027 54.32 339.48C62.5333 335.747 71.7733 333.88 82.04 333.88C89.88 333.88 97.16 334.533 103.88 335.84C110.787 337.147 116.107 338.827 119.84 340.88L115.08 356.56C111.347 354.693 107.147 353.2 102.48 352.08C97.8133 350.96 91.56 350.4 83.72 350.4C67.6667 350.4 55.44 355.627 47.04 366.08C38.8267 376.347 34.72 391 34.72 410.04C34.72 418.627 35.6533 426.56 37.52 433.84C39.3867 440.933 42.3733 447.093 46.48 452.32C50.7733 457.36 56.1867 461.373 62.72 464.36C69.44 467.16 77.56 468.56 87.08 468.56C94.92 468.56 101.453 467.72 106.68 466.04C112.093 464.173 116.013 462.587 118.44 461.28L122.36 476.96C119 478.827 113.68 480.6 106.4 482.28C99.3067 484.147 91.84 485.08 84 485.08ZM198.509 468.84C205.602 468.84 211.762 468.653 216.989 468.28C222.402 467.72 226.976 467.067 230.709 466.32V415.36C228.656 414.427 225.389 413.493 220.909 412.56C216.429 411.44 210.269 410.88 202.429 410.88C197.949 410.88 193.282 411.253 188.429 412C183.576 412.56 179.096 413.96 174.989 416.2C170.882 418.253 167.522 421.147 164.909 424.88C162.296 428.613 160.989 433.56 160.989 439.72C160.989 445.133 161.829 449.707 163.509 453.44C165.376 457.173 167.896 460.16 171.069 462.4C174.429 464.64 178.349 466.32 182.829 467.44C187.496 468.373 192.722 468.84 198.509 468.84ZM196.829 333.88C206.349 333.88 214.376 335.28 220.909 338.08C227.629 340.693 233.042 344.427 237.149 349.28C241.256 353.947 244.242 359.547 246.109 366.08C247.976 372.613 248.909 379.707 248.909 387.36V478.64C247.042 479.2 244.336 479.853 240.789 480.6C237.242 481.16 233.136 481.813 228.469 482.56C223.802 483.307 218.576 483.867 212.789 484.24C207.189 484.8 201.402 485.08 195.429 485.08C187.776 485.08 180.682 484.24 174.149 482.56C167.802 480.88 162.202 478.267 157.349 474.72C152.682 470.987 148.949 466.32 146.149 460.72C143.536 454.933 142.229 447.933 142.229 439.72C142.229 431.88 143.722 425.16 146.709 419.56C149.696 413.96 153.896 409.387 159.309 405.84C164.722 402.107 171.162 399.4 178.629 397.72C186.096 396.04 194.216 395.2 202.989 395.2C205.602 395.2 208.309 395.387 211.109 395.76C214.096 395.947 216.896 396.32 219.509 396.88C222.309 397.253 224.642 397.72 226.509 398.28C228.562 398.653 229.962 399.027 230.709 399.4V390.44C230.709 385.4 230.336 380.547 229.589 375.88C228.842 371.027 227.162 366.733 224.549 363C222.122 359.08 218.576 356 213.909 353.76C209.429 351.333 203.456 350.12 195.989 350.12C185.349 350.12 177.416 350.867 172.189 352.36C166.962 353.853 163.136 355.067 160.709 356L158.189 340.04C161.362 338.547 166.216 337.147 172.749 335.84C179.469 334.533 187.496 333.88 196.829 333.88ZM295.33 482V268.08L313.53 264.72V341.44C319.503 339.2 325.57 337.52 331.73 336.4C337.89 335.093 344.05 334.44 350.21 334.44C361.41 334.44 370.743 336.027 378.21 339.2C385.677 342.373 391.65 346.947 396.13 352.92C400.61 358.707 403.69 365.707 405.37 373.92C407.237 382.133 408.17 391.187 408.17 401.08V482H389.97V406.96C389.97 396.693 389.223 388.013 387.73 380.92C386.423 373.827 384.09 368.04 380.73 363.56C377.557 359.08 373.263 355.907 367.85 354.04C362.437 351.987 355.623 350.96 347.41 350.96C344.237 350.96 340.783 351.24 337.05 351.8C333.503 352.36 330.143 353.013 326.97 353.76C323.797 354.32 320.903 354.973 318.29 355.72C315.863 356.467 314.277 357.027 313.53 357.4V482H295.33ZM578.224 409.76C578.224 421.147 576.544 431.507 573.184 440.84C570.011 450.173 565.437 458.107 559.464 464.64C553.677 471.173 546.771 476.307 538.744 480.04C530.717 483.587 521.851 485.36 512.144 485.36C502.437 485.36 493.571 483.587 485.544 480.04C477.517 476.307 470.517 471.173 464.544 464.64C458.757 458.107 454.184 450.173 450.824 440.84C447.651 431.507 446.064 421.147 446.064 409.76C446.064 398.373 447.651 388.013 450.824 378.68C454.184 369.347 458.757 361.413 464.544 354.88C470.517 348.16 477.517 343.027 485.544 339.48C493.571 335.747 502.437 333.88 512.144 333.88C521.851 333.88 530.717 335.747 538.744 339.48C546.771 343.027 553.677 348.16 559.464 354.88C565.437 361.413 570.011 369.347 573.184 378.68C576.544 388.013 578.224 398.373 578.224 409.76ZM558.904 409.76C558.904 391.653 554.704 377.28 546.304 366.64C537.904 355.813 526.517 350.4 512.144 350.4C497.771 350.4 486.384 355.813 477.984 366.64C469.584 377.28 465.384 391.653 465.384 409.76C465.384 427.867 469.584 442.24 477.984 452.88C486.384 463.52 497.771 468.84 512.144 468.84C526.517 468.84 537.904 463.52 546.304 452.88C554.704 442.24 558.904 427.867 558.904 409.76ZM666.993 334.44C672.966 334.44 678.566 334.907 683.793 335.84C689.206 336.773 692.939 337.707 694.993 338.64L691.353 354.32C689.859 353.573 686.779 352.827 682.113 352.08C677.633 351.147 671.659 350.68 664.193 350.68C656.353 350.68 650.006 351.24 645.153 352.36C640.486 353.48 637.406 354.413 635.913 355.16V482H617.713V343.96C622.379 341.907 628.819 339.853 637.033 337.8C645.246 335.56 655.233 334.44 666.993 334.44ZM713.759 409.48C713.759 396.787 715.533 385.773 719.079 376.44C722.813 366.92 727.573 358.987 733.359 352.64C739.333 346.293 746.053 341.627 753.519 338.64C761.173 335.467 769.013 333.88 777.039 333.88C794.773 333.88 808.866 339.667 819.319 351.24C829.959 362.813 835.279 380.64 835.279 404.72C835.279 406.213 835.186 407.707 834.999 409.2C834.999 410.693 834.906 412.093 834.719 413.4H733.079C733.639 431.133 738.026 444.76 746.239 454.28C754.453 463.8 767.519 468.56 785.439 468.56C795.333 468.56 803.173 467.627 808.959 465.76C814.746 463.893 818.946 462.307 821.559 461L824.919 476.68C822.306 478.173 817.359 479.947 810.079 482C802.986 484.053 794.586 485.08 784.879 485.08C772.186 485.08 761.359 483.213 752.399 479.48C743.439 475.747 736.066 470.52 730.279 463.8C724.493 457.08 720.293 449.147 717.679 440C715.066 430.667 713.759 420.493 713.759 409.48ZM816.519 398C816.146 382.88 812.599 371.12 805.879 362.72C799.159 354.32 789.639 350.12 777.319 350.12C770.786 350.12 764.906 351.427 759.679 354.04C754.639 356.653 750.159 360.2 746.239 364.68C742.506 368.973 739.519 374.013 737.279 379.8C735.226 385.587 734.013 391.653 733.639 398H816.519ZM935.758 485.08C924.558 485.08 914.664 483.307 906.078 479.76C897.491 476.213 890.304 471.173 884.518 464.64C878.918 457.92 874.624 449.987 871.638 440.84C868.651 431.507 867.158 421.24 867.158 410.04C867.158 398.653 868.651 388.293 871.638 378.96C874.811 369.627 879.291 361.6 885.078 354.88C890.864 348.16 897.864 343.027 906.078 339.48C914.291 335.747 923.531 333.88 933.798 333.88C941.638 333.88 948.918 334.533 955.638 335.84C962.544 337.147 967.864 338.827 971.598 340.88L966.838 356.56C963.104 354.693 958.904 353.2 954.238 352.08C949.571 350.96 943.318 350.4 935.478 350.4C919.424 350.4 907.198 355.627 898.798 366.08C890.584 376.347 886.478 391 886.478 410.04C886.478 418.627 887.411 426.56 889.278 433.84C891.144 440.933 894.131 447.093 898.238 452.32C902.531 457.36 907.944 461.373 914.478 464.36C921.198 467.16 929.318 468.56 938.838 468.56C946.678 468.56 953.211 467.72 958.438 466.04C963.851 464.173 967.771 462.587 970.198 461.28L974.118 476.96C970.758 478.827 965.438 480.6 958.158 482.28C951.064 484.147 943.598 485.08 935.758 485.08ZM1050.27 468.84C1057.36 468.84 1063.52 468.653 1068.75 468.28C1074.16 467.72 1078.73 467.067 1082.47 466.32V415.36C1080.41 414.427 1077.15 413.493 1072.67 412.56C1068.19 411.44 1062.03 410.88 1054.19 410.88C1049.71 410.88 1045.04 411.253 1040.19 412C1035.33 412.56 1030.85 413.96 1026.75 416.2C1022.64 418.253 1019.28 421.147 1016.67 424.88C1014.05 428.613 1012.75 433.56 1012.75 439.72C1012.75 445.133 1013.59 449.707 1015.27 453.44C1017.13 457.173 1019.65 460.16 1022.83 462.4C1026.19 464.64 1030.11 466.32 1034.59 467.44C1039.25 468.373 1044.48 468.84 1050.27 468.84ZM1048.59 333.88C1058.11 333.88 1066.13 335.28 1072.67 338.08C1079.39 340.693 1084.8 344.427 1088.91 349.28C1093.01 353.947 1096 359.547 1097.87 366.08C1099.73 372.613 1100.67 379.707 1100.67 387.36V478.64C1098.8 479.2 1096.09 479.853 1092.55 480.6C1089 481.16 1084.89 481.813 1080.23 482.56C1075.56 483.307 1070.33 483.867 1064.55 484.24C1058.95 484.8 1053.16 485.08 1047.19 485.08C1039.53 485.08 1032.44 484.24 1025.91 482.56C1019.56 480.88 1013.96 478.267 1009.11 474.72C1004.44 470.987 1000.71 466.32 997.907 460.72C995.294 454.933 993.987 447.933 993.987 439.72C993.987 431.88 995.48 425.16 998.467 419.56C1001.45 413.96 1005.65 409.387 1011.07 405.84C1016.48 402.107 1022.92 399.4 1030.39 397.72C1037.85 396.04 1045.97 395.2 1054.75 395.2C1057.36 395.2 1060.07 395.387 1062.87 395.76C1065.85 395.947 1068.65 396.32 1071.27 396.88C1074.07 397.253 1076.4 397.72 1078.27 398.28C1080.32 398.653 1081.72 399.027 1082.47 399.4V390.44C1082.47 385.4 1082.09 380.547 1081.35 375.88C1080.6 371.027 1078.92 366.733 1076.31 363C1073.88 359.08 1070.33 356 1065.67 353.76C1061.19 351.333 1055.21 350.12 1047.75 350.12C1037.11 350.12 1029.17 350.867 1023.95 352.36C1018.72 353.853 1014.89 355.067 1012.47 356L1009.95 340.04C1013.12 338.547 1017.97 337.147 1024.51 335.84C1031.23 334.533 1039.25 333.88 1048.59 333.88ZM1147.09 482V268.08L1165.29 264.72V341.44C1171.26 339.2 1177.33 337.52 1183.49 336.4C1189.65 335.093 1195.81 334.44 1201.97 334.44C1213.17 334.44 1222.5 336.027 1229.97 339.2C1237.43 342.373 1243.41 346.947 1247.89 352.92C1252.37 358.707 1255.45 365.707 1257.13 373.92C1258.99 382.133 1259.93 391.187 1259.93 401.08V482H1241.73V406.96C1241.73 396.693 1240.98 388.013 1239.49 380.92C1238.18 373.827 1235.85 368.04 1232.49 363.56C1229.31 359.08 1225.02 355.907 1219.61 354.04C1214.19 351.987 1207.38 350.96 1199.17 350.96C1195.99 350.96 1192.54 351.24 1188.81 351.8C1185.26 352.36 1181.9 353.013 1178.73 353.76C1175.55 354.32 1172.66 354.973 1170.05 355.72C1167.62 356.467 1166.03 357.027 1165.29 357.4V482H1147.09ZM1429.98 409.76C1429.98 421.147 1428.3 431.507 1424.94 440.84C1421.77 450.173 1417.2 458.107 1411.22 464.64C1405.44 471.173 1398.53 476.307 1390.5 480.04C1382.48 483.587 1373.61 485.36 1363.9 485.36C1354.2 485.36 1345.33 483.587 1337.3 480.04C1329.28 476.307 1322.28 471.173 1316.3 464.64C1310.52 458.107 1305.94 450.173 1302.58 440.84C1299.41 431.507 1297.82 421.147 1297.82 409.76C1297.82 398.373 1299.41 388.013 1302.58 378.68C1305.94 369.347 1310.52 361.413 1316.3 354.88C1322.28 348.16 1329.28 343.027 1337.3 339.48C1345.33 335.747 1354.2 333.88 1363.9 333.88C1373.61 333.88 1382.48 335.747 1390.5 339.48C1398.53 343.027 1405.44 348.16 1411.22 354.88C1417.2 361.413 1421.77 369.347 1424.94 378.68C1428.3 388.013 1429.98 398.373 1429.98 409.76ZM1410.66 409.76C1410.66 391.653 1406.46 377.28 1398.06 366.64C1389.66 355.813 1378.28 350.4 1363.9 350.4C1349.53 350.4 1338.14 355.813 1329.74 366.64C1321.34 377.28 1317.14 391.653 1317.14 409.76C1317.14 427.867 1321.34 442.24 1329.74 452.88C1338.14 463.52 1349.53 468.84 1363.9 468.84C1378.28 468.84 1389.66 463.52 1398.06 452.88C1406.46 442.24 1410.66 427.867 1410.66 409.76ZM1518.75 334.44C1524.72 334.44 1530.32 334.907 1535.55 335.84C1540.96 336.773 1544.7 337.707 1546.75 338.64L1543.11 354.32C1541.62 353.573 1538.54 352.827 1533.87 352.08C1529.39 351.147 1523.42 350.68 1515.95 350.68C1508.11 350.68 1501.76 351.24 1496.91 352.36C1492.24 353.48 1489.16 354.413 1487.67 355.16V482H1469.47V343.96C1474.14 341.907 1480.58 339.853 1488.79 337.8C1497 335.56 1506.99 334.44 1518.75 334.44ZM15.4 661.48C15.4 648.787 17.1733 637.773 20.72 628.44C24.4533 618.92 29.2133 610.987 35 604.64C40.9733 598.293 47.6933 593.627 55.16 590.64C62.8133 587.467 70.6533 585.88 78.68 585.88C96.4133 585.88 110.507 591.667 120.96 603.24C131.6 614.813 136.92 632.64 136.92 656.72C136.92 658.213 136.827 659.707 136.64 661.2C136.64 662.693 136.547 664.093 136.36 665.4H34.72C35.28 683.133 39.6667 696.76 47.88 706.28C56.0933 715.8 69.16 720.56 87.08 720.56C96.9733 720.56 104.813 719.627 110.6 717.76C116.387 715.893 120.587 714.307 123.2 713L126.56 728.68C123.947 730.173 119 731.947 111.72 734C104.627 736.053 96.2267 737.08 86.52 737.08C73.8267 737.08 63 735.213 54.04 731.48C45.08 727.747 37.7067 722.52 31.92 715.8C26.1333 709.08 21.9333 701.147 19.32 692C16.7067 682.667 15.4 672.493 15.4 661.48ZM118.16 650C117.787 634.88 114.24 623.12 107.52 614.72C100.8 606.32 91.28 602.12 78.96 602.12C72.4267 602.12 66.5467 603.427 61.32 606.04C56.28 608.653 51.8 612.2 47.88 616.68C44.1467 620.973 41.16 626.013 38.92 631.8C36.8667 637.587 35.6533 643.653 35.28 650H118.16ZM237.398 737.08C226.198 737.08 216.305 735.307 207.718 731.76C199.132 728.213 191.945 723.173 186.158 716.64C180.558 709.92 176.265 701.987 173.278 692.84C170.292 683.507 168.798 673.24 168.798 662.04C168.798 650.653 170.292 640.293 173.278 630.96C176.452 621.627 180.932 613.6 186.718 606.88C192.505 600.16 199.505 595.027 207.718 591.48C215.932 587.747 225.172 585.88 235.438 585.88C243.278 585.88 250.558 586.533 257.278 587.84C264.185 589.147 269.505 590.827 273.238 592.88L268.478 608.56C264.745 606.693 260.545 605.2 255.878 604.08C251.212 602.96 244.958 602.4 237.118 602.4C221.065 602.4 208.838 607.627 200.438 618.08C192.225 628.347 188.118 643 188.118 662.04C188.118 670.627 189.052 678.56 190.918 685.84C192.785 692.933 195.772 699.093 199.878 704.32C204.172 709.36 209.585 713.373 216.118 716.36C222.838 719.16 230.958 720.56 240.478 720.56C248.318 720.56 254.852 719.72 260.078 718.04C265.492 716.173 269.412 714.587 271.838 713.28L275.758 728.96C272.398 730.827 267.078 732.6 259.798 734.28C252.705 736.147 245.238 737.08 237.398 737.08ZM351.908 720.84C359.001 720.84 365.161 720.653 370.388 720.28C375.801 719.72 380.374 719.067 384.108 718.32V667.36C382.054 666.427 378.788 665.493 374.308 664.56C369.828 663.44 363.668 662.88 355.828 662.88C351.348 662.88 346.681 663.253 341.828 664C336.974 664.56 332.494 665.96 328.388 668.2C324.281 670.253 320.921 673.147 318.308 676.88C315.694 680.613 314.388 685.56 314.388 691.72C314.388 697.133 315.228 701.707 316.908 705.44C318.774 709.173 321.294 712.16 324.468 714.4C327.828 716.64 331.748 718.32 336.228 719.44C340.894 720.373 346.121 720.84 351.908 720.84ZM350.228 585.88C359.748 585.88 367.774 587.28 374.308 590.08C381.028 592.693 386.441 596.427 390.548 601.28C394.654 605.947 397.641 611.547 399.508 618.08C401.374 624.613 402.308 631.707 402.308 639.36V730.64C400.441 731.2 397.734 731.853 394.188 732.6C390.641 733.16 386.534 733.813 381.868 734.56C377.201 735.307 371.974 735.867 366.188 736.24C360.588 736.8 354.801 737.08 348.828 737.08C341.174 737.08 334.081 736.24 327.548 734.56C321.201 732.88 315.601 730.267 310.748 726.72C306.081 722.987 302.348 718.32 299.548 712.72C296.934 706.933 295.628 699.933 295.628 691.72C295.628 683.88 297.121 677.16 300.108 671.56C303.094 665.96 307.294 661.387 312.708 657.84C318.121 654.107 324.561 651.4 332.028 649.72C339.494 648.04 347.614 647.2 356.388 647.2C359.001 647.2 361.708 647.387 364.507 647.76C367.494 647.947 370.294 648.32 372.908 648.88C375.708 649.253 378.041 649.72 379.908 650.28C381.961 650.653 383.361 651.027 384.108 651.4V642.44C384.108 637.4 383.734 632.547 382.988 627.88C382.241 623.027 380.561 618.733 377.948 615C375.521 611.08 371.974 608 367.308 605.76C362.828 603.333 356.854 602.12 349.388 602.12C338.748 602.12 330.814 602.867 325.588 604.36C320.361 605.853 316.534 607.067 314.108 608L311.588 592.04C314.761 590.547 319.614 589.147 326.148 587.84C332.868 586.533 340.894 585.88 350.228 585.88ZM448.728 734V520.08L466.928 516.72V593.44C472.902 591.2 478.968 589.52 485.128 588.4C491.288 587.093 497.448 586.44 503.608 586.44C514.808 586.44 524.142 588.027 531.608 591.2C539.075 594.373 545.048 598.947 549.528 604.92C554.008 610.707 557.088 617.707 558.768 625.92C560.635 634.133 561.568 643.187 561.568 653.08V734H543.368V658.96C543.368 648.693 542.622 640.013 541.128 632.92C539.822 625.827 537.488 620.04 534.128 615.56C530.955 611.08 526.662 607.907 521.248 606.04C515.835 603.987 509.022 602.96 500.808 602.96C497.635 602.96 494.182 603.24 490.448 603.8C486.902 604.36 483.542 605.013 480.368 605.76C477.195 606.32 474.302 606.973 471.688 607.72C469.262 608.467 467.675 609.027 466.928 609.4V734H448.728ZM731.623 661.76C731.623 673.147 729.943 683.507 726.583 692.84C723.409 702.173 718.836 710.107 712.863 716.64C707.076 723.173 700.169 728.307 692.143 732.04C684.116 735.587 675.249 737.36 665.543 737.36C655.836 737.36 646.969 735.587 638.943 732.04C630.916 728.307 623.916 723.173 617.943 716.64C612.156 710.107 607.583 702.173 604.223 692.84C601.049 683.507 599.463 673.147 599.463 661.76C599.463 650.373 601.049 640.013 604.223 630.68C607.583 621.347 612.156 613.413 617.943 606.88C623.916 600.16 630.916 595.027 638.943 591.48C646.969 587.747 655.836 585.88 665.543 585.88C675.249 585.88 684.116 587.747 692.143 591.48C700.169 595.027 707.076 600.16 712.863 606.88C718.836 613.413 723.409 621.347 726.583 630.68C729.943 640.013 731.623 650.373 731.623 661.76ZM712.303 661.76C712.303 643.653 708.103 629.28 699.703 618.64C691.303 607.813 679.916 602.4 665.543 602.4C651.169 602.4 639.783 607.813 631.383 618.64C622.983 629.28 618.783 643.653 618.783 661.76C618.783 679.867 622.983 694.24 631.383 704.88C639.783 715.52 651.169 720.84 665.543 720.84C679.916 720.84 691.303 715.52 699.703 704.88C708.103 694.24 712.303 679.867 712.303 661.76ZM820.391 586.44C826.365 586.44 831.965 586.907 837.191 587.84C842.605 588.773 846.338 589.707 848.391 590.64L844.751 606.32C843.258 605.573 840.178 604.827 835.511 604.08C831.031 603.147 825.058 602.68 817.591 602.68C809.751 602.68 803.405 603.24 798.551 604.36C793.885 605.48 790.805 606.413 789.311 607.16V734H771.111V595.96C775.778 593.907 782.218 591.853 790.431 589.8C798.645 587.56 808.631 586.44 820.391 586.44ZM867.158 661.48C867.158 648.787 868.931 637.773 872.478 628.44C876.211 618.92 880.971 610.987 886.758 604.64C892.731 598.293 899.451 593.627 906.918 590.64C914.571 587.467 922.411 585.88 930.438 585.88C948.171 585.88 962.264 591.667 972.718 603.24C983.358 614.813 988.678 632.64 988.678 656.72C988.678 658.213 988.584 659.707 988.398 661.2C988.398 662.693 988.304 664.093 988.118 665.4H886.478C887.038 683.133 891.424 696.76 899.638 706.28C907.851 715.8 920.918 720.56 938.838 720.56C948.731 720.56 956.571 719.627 962.358 717.76C968.144 715.893 972.344 714.307 974.958 713L978.318 728.68C975.704 730.173 970.758 731.947 963.478 734C956.384 736.053 947.984 737.08 938.278 737.08C925.584 737.08 914.758 735.213 905.798 731.48C896.838 727.747 889.464 722.52 883.678 715.8C877.891 709.08 873.691 701.147 871.078 692C868.464 682.667 867.158 672.493 867.158 661.48ZM969.918 650C969.544 634.88 965.998 623.12 959.278 614.72C952.558 606.32 943.038 602.12 930.718 602.12C924.184 602.12 918.304 603.427 913.078 606.04C908.038 608.653 903.558 612.2 899.638 616.68C895.904 620.973 892.918 626.013 890.678 631.8C888.624 637.587 887.411 643.653 887.038 650H969.918ZM1089.16 737.08C1077.96 737.08 1068.06 735.307 1059.48 731.76C1050.89 728.213 1043.7 723.173 1037.92 716.64C1032.32 709.92 1028.02 701.987 1025.04 692.84C1022.05 683.507 1020.56 673.24 1020.56 662.04C1020.56 650.653 1022.05 640.293 1025.04 630.96C1028.21 621.627 1032.69 613.6 1038.48 606.88C1044.26 600.16 1051.26 595.027 1059.48 591.48C1067.69 587.747 1076.93 585.88 1087.2 585.88C1095.04 585.88 1102.32 586.533 1109.04 587.84C1115.94 589.147 1121.26 590.827 1125 592.88L1120.24 608.56C1116.5 606.693 1112.3 605.2 1107.64 604.08C1102.97 602.96 1096.72 602.4 1088.88 602.4C1072.82 602.4 1060.6 607.627 1052.2 618.08C1043.98 628.347 1039.88 643 1039.88 662.04C1039.88 670.627 1040.81 678.56 1042.68 685.84C1044.54 692.933 1047.53 699.093 1051.64 704.32C1055.93 709.36 1061.34 713.373 1067.88 716.36C1074.6 719.16 1082.72 720.56 1092.24 720.56C1100.08 720.56 1106.61 719.72 1111.84 718.04C1117.25 716.173 1121.17 714.587 1123.6 713.28L1127.52 728.96C1124.16 730.827 1118.84 732.6 1111.56 734.28C1104.46 736.147 1097 737.08 1089.16 737.08ZM1203.67 720.84C1210.76 720.84 1216.92 720.653 1222.15 720.28C1227.56 719.72 1232.13 719.067 1235.87 718.32V667.36C1233.81 666.427 1230.55 665.493 1226.07 664.56C1221.59 663.44 1215.43 662.88 1207.59 662.88C1203.11 662.88 1198.44 663.253 1193.59 664C1188.73 664.56 1184.25 665.96 1180.15 668.2C1176.04 670.253 1172.68 673.147 1170.07 676.88C1167.45 680.613 1166.15 685.56 1166.15 691.72C1166.15 697.133 1166.99 701.707 1168.67 705.44C1170.53 709.173 1173.05 712.16 1176.23 714.4C1179.59 716.64 1183.51 718.32 1187.99 719.44C1192.65 720.373 1197.88 720.84 1203.67 720.84ZM1201.99 585.88C1211.51 585.88 1219.53 587.28 1226.07 590.08C1232.79 592.693 1238.2 596.427 1242.31 601.28C1246.41 605.947 1249.4 611.547 1251.27 618.08C1253.13 624.613 1254.07 631.707 1254.07 639.36V730.64C1252.2 731.2 1249.49 731.853 1245.95 732.6C1242.4 733.16 1238.29 733.813 1233.63 734.56C1228.96 735.307 1223.73 735.867 1217.95 736.24C1212.35 736.8 1206.56 737.08 1200.59 737.08C1192.93 737.08 1185.84 736.24 1179.31 734.56C1172.96 732.88 1167.36 730.267 1162.51 726.72C1157.84 722.987 1154.11 718.32 1151.31 712.72C1148.69 706.933 1147.39 699.933 1147.39 691.72C1147.39 683.88 1148.88 677.16 1151.87 671.56C1154.85 665.96 1159.05 661.387 1164.47 657.84C1169.88 654.107 1176.32 651.4 1183.79 649.72C1191.25 648.04 1199.37 647.2 1208.15 647.2C1210.76 647.2 1213.47 647.387 1216.27 647.76C1219.25 647.947 1222.05 648.32 1224.67 648.88C1227.47 649.253 1229.8 649.72 1231.67 650.28C1233.72 650.653 1235.12 651.027 1235.87 651.4V642.44C1235.87 637.4 1235.49 632.547 1234.75 627.88C1234 623.027 1232.32 618.733 1229.71 615C1227.28 611.08 1223.73 608 1219.07 605.76C1214.59 603.333 1208.61 602.12 1201.15 602.12C1190.51 602.12 1182.57 602.867 1177.35 604.36C1172.12 605.853 1168.29 607.067 1165.87 608L1163.35 592.04C1166.52 590.547 1171.37 589.147 1177.91 587.84C1184.63 586.533 1192.65 585.88 1201.99 585.88ZM1300.49 734V520.08L1318.69 516.72V593.44C1324.66 591.2 1330.73 589.52 1336.89 588.4C1343.05 587.093 1349.21 586.44 1355.37 586.44C1366.57 586.44 1375.9 588.027 1383.37 591.2C1390.83 594.373 1396.81 598.947 1401.29 604.92C1405.77 610.707 1408.85 617.707 1410.53 625.92C1412.39 634.133 1413.33 643.187 1413.33 653.08V734H1395.13V658.96C1395.13 648.693 1394.38 640.013 1392.89 632.92C1391.58 625.827 1389.25 620.04 1385.89 615.56C1382.71 611.08 1378.42 607.907 1373.01 606.04C1367.59 603.987 1360.78 602.96 1352.57 602.96C1349.39 602.96 1345.94 603.24 1342.21 603.8C1338.66 604.36 1335.3 605.013 1332.13 605.76C1328.95 606.32 1326.06 606.973 1323.45 607.72C1321.02 608.467 1319.43 609.027 1318.69 609.4V734H1300.49Z" fill="#E9E7DA" fill-opacity="0.15"/>
</svg>
