<svg width="35" height="35" viewBox="0 0 35 35" fill="none" xmlns="http://www.w3.org/2000/svg">
<path d="M17.5399 0H17.4601C7.81716 0 0 7.81716 0 17.4601V17.5398C0 27.1828 7.81716 35 17.4601 35H17.5399C27.1828 35 35 27.1828 35 17.5398V17.4601C35 7.81716 27.1828 0 17.5399 0Z" fill="#AA9320"/>
<path d="M6.62891 16.9024C6.67796 16.8779 6.72703 16.8546 6.77485 16.8325C7.60623 16.4475 8.44864 16.087 9.28983 15.7265C9.3352 15.7265 9.41121 15.6737 9.45413 15.6566C9.51911 15.6283 9.58412 15.6014 9.64911 15.5732C9.77418 15.5192 9.89926 15.4665 10.0231 15.4125C10.2733 15.3059 10.5222 15.1992 10.7723 15.0925L12.2695 14.4512C13.2677 14.0245 14.2671 13.5965 15.2652 13.1698C16.2633 12.743 17.2627 12.3151 18.2608 11.8884C19.259 11.4617 20.2584 11.0337 21.2565 10.607C22.2546 10.1803 23.254 9.7523 24.2522 9.32557C24.4741 9.22993 24.7145 9.08768 24.9523 9.04599C25.1522 9.01043 25.3472 8.94178 25.5483 8.90376C25.9296 8.83142 26.3502 8.80198 26.7156 8.96016C26.8419 9.01534 26.9584 9.09259 27.0553 9.18947C27.5188 9.64807 27.4538 10.401 27.3557 11.046C26.6727 15.5413 25.9897 20.0378 25.3055 24.5332C25.2123 25.15 25.0848 25.8268 24.5979 26.2168C24.1859 26.5466 23.5998 26.5834 23.0909 26.4436C22.582 26.3026 22.1333 26.0071 21.693 25.7165C19.8672 24.5074 18.0401 23.2984 16.2143 22.0893C15.7802 21.8024 15.2971 21.4272 15.302 20.906C15.3044 20.5921 15.492 20.3125 15.6833 20.0636C17.2701 17.9937 19.5594 16.5713 21.2626 14.5971C21.503 14.3187 21.6918 13.816 21.362 13.6554C21.1658 13.5597 20.9401 13.6897 20.7611 13.8135C18.5098 15.377 16.2597 16.9416 14.0083 18.5051C13.2738 19.0152 12.5038 19.54 11.6184 19.6651C10.8263 19.7779 10.0292 19.5572 9.26286 19.3315C8.62032 19.1427 7.97898 18.9489 7.34012 18.7491C7.00046 18.6436 6.64976 18.5296 6.38735 18.2905C6.12494 18.0514 5.97413 17.6492 6.13231 17.3303C6.23164 17.1305 6.42416 17.0042 6.62648 16.9012L6.62891 16.9024Z" fill="#351E1E"/>
</svg>
