<svg width="35" height="35" viewBox="0 0 35 35" fill="none" xmlns="http://www.w3.org/2000/svg">
<path d="M17.5399 0H17.4601C7.81717 0 0 7.81716 0 17.4601V17.5398C0 27.1828 7.81717 35 17.4601 35H17.5399C27.1828 35 35 27.1828 35 17.5398V17.4601C35 7.81716 27.1828 0 17.5399 0Z" fill="#AA9320"/>
<path d="M25.9603 12.662V15.9667C25.3828 15.9103 24.6323 15.7791 23.8022 15.475C22.7182 15.0777 21.9113 14.5344 21.3828 14.1139V20.7931L21.3693 20.7722C21.3779 20.9046 21.3828 21.0395 21.3828 21.1756C21.3828 24.4926 18.6839 27.1927 15.3658 27.1927C12.0476 27.1927 9.3487 24.4926 9.3487 21.1756C9.3487 17.8587 12.0476 15.1574 15.3658 15.1574C15.6907 15.1574 16.0095 15.1831 16.321 15.2334V18.4902C16.0218 18.3835 15.7005 18.3259 15.3658 18.3259C13.795 18.3259 12.516 19.6036 12.516 21.1756C12.516 22.7477 13.795 24.0254 15.3658 24.0254C16.9366 24.0254 18.2155 22.7464 18.2155 21.1756C18.2155 21.1168 18.2143 21.0579 18.2106 20.9991V8.01953H21.5128C21.5251 8.29911 21.5361 8.58114 21.5484 8.86072C21.5704 9.41129 21.7666 9.9398 22.1087 10.3727C22.5097 10.8815 23.102 11.4726 23.9334 11.9447C24.712 12.3849 25.4428 12.5749 25.9603 12.6645V12.662Z" fill="#351E1E"/>
</svg>
