<svg width="35" height="35" viewBox="0 0 35 35" fill="none" xmlns="http://www.w3.org/2000/svg">
<path d="M17.5399 0H17.4601C7.81718 0 0 7.81716 0 17.4601V17.5398C0 27.1828 7.81718 35 17.4601 35H17.5399C27.1828 35 35 27.1828 35 17.5398V17.4601C35 7.81716 27.1828 0 17.5399 0Z" fill="#AA9320"/>
<path d="M22.9156 7.12061H12.0856C9.09366 7.12061 6.65961 9.55465 6.65961 12.5466V22.4545C6.65961 25.4465 9.09366 27.8805 12.0856 27.8805H22.9156C25.9076 27.8805 28.3416 25.4465 28.3416 22.4545V12.5466C28.3416 9.55465 25.9076 7.12061 22.9156 7.12061ZM8.57375 12.5466C8.57375 10.6104 10.1494 9.03473 12.0856 9.03473H22.9156C24.8518 9.03473 26.4275 10.6104 26.4275 12.5466V22.4545C26.4275 24.3907 24.8518 25.9664 22.9156 25.9664H12.0856C10.1494 25.9664 8.57375 24.3907 8.57375 22.4545V12.5466Z" fill="#351E1E"/>
<path d="M17.5006 22.5464C20.2829 22.5464 22.5478 20.2828 22.5478 17.4993C22.5478 14.7158 20.2842 12.4521 17.5006 12.4521C14.7171 12.4521 12.4535 14.7158 12.4535 17.4993C12.4535 20.2828 14.7171 22.5464 17.5006 22.5464ZM17.5006 14.3675C19.2284 14.3675 20.6336 15.7728 20.6336 17.5005C20.6336 19.2282 19.2284 20.6335 17.5006 20.6335C15.7729 20.6335 14.3676 19.2282 14.3676 17.5005C14.3676 15.7728 15.7729 14.3675 17.5006 14.3675Z" fill="#351E1E"/>
<path d="M23.0149 13.2671C23.7642 13.2671 24.3748 12.6577 24.3748 11.9073C24.3748 11.1568 23.7654 10.5474 23.0149 10.5474C22.2645 10.5474 21.6551 11.1568 21.6551 11.9073C21.6551 12.6577 22.2645 13.2671 23.0149 13.2671Z" fill="#351E1E"/>
</svg>
