<svg width="50" height="83" viewBox="0 0 50 83" fill="none" xmlns="http://www.w3.org/2000/svg">
<path d="M31.186 45.2209C29.6515 45.2209 28.2129 45.0999 26.8702 44.8589C25.4796 44.6174 24.5205 44.3759 23.993 44.1347L24.9281 40.08C25.3118 40.2731 26.103 40.4662 27.3018 40.6593C28.4527 40.9006 29.9872 41.0213 31.9053 41.0213C33.9194 41.0213 35.5498 40.8765 36.7966 40.5869C37.9954 40.2973 38.7866 40.0559 39.1702 39.8628V7.0637H43.8457V42.759C42.6469 43.29 40.9925 43.8209 38.8825 44.352C36.7726 44.9313 34.2071 45.2209 31.186 45.2209Z" fill="#AA9320"/>
<path d="M31.186 42.2209C29.6515 42.2209 28.2129 42.3415 26.8702 42.5829C25.4796 42.8243 24.5205 43.0656 23.993 43.3069L24.9281 47.3616C25.3118 47.1686 26.103 46.9753 27.3018 46.7823C28.4527 46.5409 29.9872 46.4203 31.9053 46.4203C33.9194 46.4203 35.5498 46.5651 36.7966 46.8548C37.9954 47.1444 38.7866 47.3859 39.1702 47.5788V80.3779H43.8457V44.6826C42.6469 44.1516 40.9925 43.6207 38.8825 43.0897C36.7726 42.5105 34.2071 42.2209 31.186 42.2209Z" fill="#AA9320"/>
<path d="M18.8 45.2209C20.3345 45.2209 21.7731 45.0999 23.1158 44.8589C24.5065 44.6174 25.4655 44.3759 25.993 44.1347L25.0579 40.08C24.6743 40.2731 23.8831 40.4662 22.6842 40.6593C21.5334 40.9006 19.9988 41.0213 18.0807 41.0213C16.0667 41.0213 14.4363 40.8765 13.1895 40.5869C11.9907 40.2973 11.1995 40.0559 10.8158 39.8628V7.0637H6.14038V42.759C7.3392 43.29 8.99358 43.8209 11.1035 44.352C13.2135 44.9313 15.779 45.2209 18.8 45.2209Z" fill="#AA9320"/>
<path d="M18.8 42.2209C20.3345 42.2209 21.7731 42.3415 23.1158 42.5829C24.5065 42.8243 25.4655 43.0656 25.993 43.3069L25.0579 47.3616C24.6743 47.1686 23.8831 46.9753 22.6842 46.7823C21.5334 46.5409 19.9988 46.4203 18.0807 46.4203C16.0667 46.4203 14.4363 46.5651 13.1895 46.8548C11.9907 47.1444 11.1995 47.3859 10.8158 47.5788V80.3779H6.14038V44.6826C7.3392 44.1516 8.99358 43.6207 11.1035 43.0897C13.2135 42.5105 15.779 42.2209 18.8 42.2209Z" fill="#AA9320"/>
</svg>
