<svg width="114" height="188" viewBox="0 0 114 188" fill="none" xmlns="http://www.w3.org/2000/svg">
<path d="M71.4 102.428C67.9013 102.428 64.6213 102.154 61.56 101.608C58.3893 101.061 56.2027 100.514 55 99.9678L57.132 90.7838C58.0067 91.2211 59.8107 91.6585 62.544 92.0958C65.168 92.6425 68.6667 92.9158 73.04 92.9158C77.632 92.9158 81.3493 92.5878 84.192 91.9318C86.9253 91.2758 88.7293 90.7291 89.604 90.2918V15.9998H100.264V96.8518C97.5307 98.0545 93.7587 99.257 88.948 100.46C84.1373 101.772 78.288 102.428 71.4 102.428Z" fill="#AA9320"/>
<path d="M71.4 94C67.9013 94 64.6213 94.2733 61.56 94.82C58.3893 95.3667 56.2027 95.9133 55 96.46L57.132 105.644C58.0067 105.207 59.8107 104.769 62.544 104.332C65.168 103.785 68.6667 103.512 73.04 103.512C77.632 103.512 81.3493 103.84 84.192 104.496C86.9253 105.152 88.7293 105.699 89.604 106.136V180.428H100.264V99.576C97.5307 98.3733 93.7587 97.1707 88.948 95.968C84.1373 94.656 78.288 94 71.4 94Z" fill="#AA9320"/>
<path d="M42.864 102.428C46.3627 102.428 49.6427 102.154 52.704 101.608C55.8747 101.061 58.0613 100.514 59.264 99.9678L57.132 90.7838C56.2573 91.2211 54.4533 91.6585 51.72 92.0958C49.096 92.6425 45.5973 92.9158 41.224 92.9158C36.632 92.9158 32.9147 92.5878 30.072 91.9318C27.3387 91.2758 25.5347 90.7291 24.66 90.2918V15.9998H14V96.8518C16.7333 98.0545 20.5053 99.257 25.316 100.46C30.1267 101.772 35.976 102.428 42.864 102.428Z" fill="#AA9320"/>
<path d="M42.864 94C46.3627 94 49.6427 94.2733 52.704 94.82C55.8747 95.3667 58.0613 95.9133 59.264 96.46L57.132 105.644C56.2573 105.207 54.4533 104.769 51.72 104.332C49.096 103.785 45.5973 103.512 41.224 103.512C36.632 103.512 32.9147 103.84 30.072 104.496C27.3387 105.152 25.5347 105.699 24.66 106.136V180.428H14V99.576C16.7333 98.3733 20.5053 97.1707 25.316 95.968C30.1267 94.656 35.976 94 42.864 94Z" fill="#AA9320"/>
</svg>
